<svg version="1.1" id="Layer_1" xmlns="http://www.w3.org/2000/svg" xmlns:xlink="http://www.w3.org/1999/xlink" x="0px" y="0px"
	 width="100%" viewBox="0 0 176 176" enable-background="new 0 0 176 176" xml:space="preserve">
<path fill="#FFFFFF" opacity="1.000000" stroke="none" 
	d="
M1.000000,71.000000 
	C1.000000,47.333340 1.000000,24.166677 1.000000,1.000012 
	C59.666645,1.000008 118.333290,1.000008 176.999954,1.000004 
	C176.999969,59.666630 176.999969,118.333260 176.999985,176.999908 
	C118.333382,176.999939 59.666763,176.999939 1.000071,176.999969 
	C1.000000,141.833328 1.000000,106.666664 1.000000,71.000000 
M108.014847,161.503357 
	C109.446251,159.685913 110.958031,157.925491 112.295097,156.041107 
	C117.918365,148.116074 119.694061,138.812805 121.925087,129.625626 
	C122.405853,127.645874 124.248245,125.606934 126.014442,124.404831 
	C130.651794,121.248573 135.890350,118.934753 140.359192,115.579224 
	C155.771866,104.006264 158.496658,87.076103 146.470840,72.807198 
	C141.930389,67.419846 134.941498,64.122627 129.201721,59.700001 
	C127.838982,58.649971 125.889862,56.691914 126.114372,55.514603 
	C127.937859,45.952488 129.739990,36.335239 132.517334,27.023731 
	C134.420731,20.642288 140.437393,17.864929 144.830978,20.411989 
	C147.042007,21.693769 148.757126,23.891495 150.559113,25.804453 
	C153.412033,28.833055 156.267365,28.824074 159.220459,26.060780 
	C162.163727,23.306656 160.879227,20.930710 158.781693,18.280886 
	C150.838852,8.246687 132.685791,10.665091 124.359856,20.505424 
	C117.309937,28.837667 113.227783,38.486519 111.389252,49.076492 
	C110.713173,52.970711 108.976494,53.306770 105.577347,52.960487 
	C97.508263,52.138466 89.396873,51.643040 81.290451,51.322124 
	C78.276413,51.202805 75.228523,51.938309 71.648773,52.346390 
	C72.674133,41.685963 74.026382,32.048298 79.222420,23.476671 
	C82.175148,18.605715 88.768150,18.318687 92.884613,22.601442 
	C94.261482,24.033924 95.321159,26.422888 96.920242,26.831621 
	C99.110413,27.391445 102.141678,27.165398 103.919914,25.959747 
	C105.123886,25.143456 105.820007,21.330191 104.962273,20.127048 
	C101.949219,15.900640 97.865196,12.717143 92.360573,12.071794 
	C81.141724,10.756523 72.558670,15.491998 66.135506,24.192682 
	C59.688156,32.926125 57.239510,43.292984 55.121201,53.756035 
	C54.778828,55.447128 53.081036,57.227730 51.535004,58.246319 
	C45.770199,62.044395 39.133499,64.787926 34.065647,69.316666 
	C24.741320,77.649086 20.258209,87.468483 25.244606,101.031250 
	C28.242859,109.186348 34.411808,115.134224 41.798889,118.960991 
	C49.162598,122.775650 53.194496,126.984383 50.237919,135.603989 
	C47.735916,142.898331 46.297203,150.645370 43.069725,157.578415 
	C39.771770,164.662857 33.498363,164.655151 28.601444,158.568359 
	C27.562574,157.277054 26.356882,155.239441 25.129360,155.164612 
	C22.612724,155.011200 19.737749,155.452347 17.611900,156.685669 
	C16.719652,157.203308 16.621651,160.750229 17.425356,162.237671 
	C20.565496,168.049133 29.387762,171.363693 35.922127,170.424652 
	C48.772655,168.577942 56.074787,160.297958 60.751087,149.252960 
	C63.492725,142.777466 65.214394,135.870117 67.095749,130.077942 
	C80.236610,130.077942 92.906586,130.077942 105.911240,130.077942 
	C105.136612,134.927246 104.922058,139.614136 103.561989,143.940964 
	C101.849533,149.388809 99.879150,154.991074 96.765953,159.697098 
	C93.634735,164.430359 87.724648,163.803970 84.043182,159.413269 
	C82.878693,158.024445 81.812164,156.446548 80.369888,155.420166 
	C77.491386,153.371719 74.204819,153.772186 72.514175,156.618454 
	C71.574524,158.200409 71.856323,161.856277 73.084297,163.101746 
	C75.789497,165.845428 79.167107,168.654739 82.764580,169.649170 
	C92.357132,172.300735 100.679756,169.162186 108.014847,161.503357 
z"/>
<path fill="#5E6AFF" opacity="1.000000" stroke="none" 
	d="
M107.762566,161.754730 
	C100.679756,169.162186 92.357132,172.300735 82.764580,169.649170 
	C79.167107,168.654739 75.789497,165.845428 73.084297,163.101746 
	C71.856323,161.856277 71.574524,158.200409 72.514175,156.618454 
	C74.204819,153.772186 77.491386,153.371719 80.369888,155.420166 
	C81.812164,156.446548 82.878693,158.024445 84.043182,159.413269 
	C87.724648,163.803970 93.634735,164.430359 96.765953,159.697098 
	C99.879150,154.991074 101.849533,149.388809 103.561989,143.940964 
	C104.922058,139.614136 105.136612,134.927246 105.911240,130.077942 
	C92.906586,130.077942 80.236610,130.077942 67.095749,130.077942 
	C65.214394,135.870117 63.492725,142.777466 60.751087,149.252960 
	C56.074787,160.297958 48.772655,168.577942 35.922127,170.424652 
	C29.387762,171.363693 20.565496,168.049133 17.425356,162.237671 
	C16.621651,160.750229 16.719652,157.203308 17.611900,156.685669 
	C19.737749,155.452347 22.612724,155.011200 25.129360,155.164612 
	C26.356882,155.239441 27.562574,157.277054 28.601444,158.568359 
	C33.498363,164.655151 39.771770,164.662857 43.069725,157.578415 
	C46.297203,150.645370 47.735916,142.898331 50.237919,135.603989 
	C53.194496,126.984383 49.162598,122.775650 41.798889,118.960991 
	C34.411808,115.134224 28.242859,109.186348 25.244606,101.031250 
	C20.258209,87.468483 24.741320,77.649086 34.065647,69.316666 
	C39.133499,64.787926 45.770199,62.044395 51.535004,58.246319 
	C53.081036,57.227730 54.778828,55.447128 55.121201,53.756035 
	C57.239510,43.292984 59.688156,32.926125 66.135506,24.192682 
	C72.558670,15.491998 81.141724,10.756523 92.360573,12.071794 
	C97.865196,12.717143 101.949219,15.900640 104.962273,20.127048 
	C105.820007,21.330191 105.123886,25.143456 103.919914,25.959747 
	C102.141678,27.165398 99.110413,27.391445 96.920242,26.831621 
	C95.321159,26.422888 94.261482,24.033924 92.884613,22.601442 
	C88.768150,18.318687 82.175148,18.605715 79.222420,23.476671 
	C74.026382,32.048298 72.674133,41.685963 71.648773,52.346390 
	C75.228523,51.938309 78.276413,51.202805 81.290451,51.322124 
	C89.396873,51.643040 97.508263,52.138466 105.577347,52.960487 
	C108.976494,53.306770 110.713173,52.970711 111.389252,49.076492 
	C113.227783,38.486519 117.309937,28.837667 124.359856,20.505424 
	C132.685791,10.665091 150.838852,8.246687 158.781693,18.280886 
	C160.879227,20.930710 162.163727,23.306656 159.220459,26.060780 
	C156.267365,28.824074 153.412033,28.833055 150.559113,25.804453 
	C148.757126,23.891495 147.042007,21.693769 144.830978,20.411989 
	C140.437393,17.864929 134.420731,20.642288 132.517334,27.023731 
	C129.739990,36.335239 127.937859,45.952488 126.114372,55.514603 
	C125.889862,56.691914 127.838982,58.649971 129.201721,59.700001 
	C134.941498,64.122627 141.930389,67.419846 146.470840,72.807198 
	C158.496658,87.076103 155.771866,104.006264 140.359192,115.579224 
	C135.890350,118.934753 130.651794,121.248573 126.014442,124.404831 
	C124.248245,125.606934 122.405853,127.645874 121.925087,129.625626 
	C119.694061,138.812805 117.918365,148.116074 112.295097,156.041107 
	C110.958031,157.925491 109.446251,159.685913 107.762566,161.754730 
M107.981308,99.219688 
	C108.309944,88.272568 108.724586,77.326508 108.858887,66.377007 
	C108.875771,65.000778 107.606651,62.561451 106.610947,62.379543 
	C94.511574,60.169067 82.372849,59.884113 69.237198,62.402740 
	C69.237198,81.680275 69.237198,100.662994 69.237198,119.775551 
	C84.609657,122.601044 96.797569,122.542854 106.761589,119.457771 
	C107.164055,113.043022 107.568016,106.604355 107.981308,99.219688 
M43.937027,109.650436 
	C46.479191,111.122993 49.021351,112.595551 52.627934,114.684685 
	C52.627934,98.220757 52.627934,83.239449 52.627934,67.778290 
	C43.605591,72.625450 34.826992,77.467026 32.942337,88.192383 
	C31.344790,97.283852 36.003647,104.112480 43.937027,109.650436 
M138.001205,76.518311 
	C133.945862,73.596252 129.890533,70.674194 125.835197,67.752129 
	C125.391602,68.055519 124.948006,68.358910 124.504410,68.662300 
	C124.504410,83.685104 124.504410,98.707909 124.504410,113.709648 
	C138.184708,110.057533 153.009109,93.461761 138.001205,76.518311 
z"/>
<path fill="#FFFFFF" opacity="1.000000" stroke="none" 
	d="
M107.976646,99.692688 
	C107.568016,106.604355 107.164055,113.043022 106.761589,119.457771 
	C96.797569,122.542854 84.609657,122.601044 69.237198,119.775551 
	C69.237198,100.662994 69.237198,81.680275 69.237198,62.402740 
	C82.372849,59.884113 94.511574,60.169067 106.610947,62.379543 
	C107.606651,62.561451 108.875771,65.000778 108.858887,66.377007 
	C108.724586,77.326508 108.309944,88.272568 107.976646,99.692688 
z"/>
<path fill="#FFFFFF" opacity="1.000000" stroke="none" 
	d="
M43.663498,109.409729 
	C36.003647,104.112480 31.344790,97.283852 32.942337,88.192383 
	C34.826992,77.467026 43.605591,72.625450 52.627934,67.778290 
	C52.627934,83.239449 52.627934,98.220757 52.627934,114.684685 
	C49.021351,112.595551 46.479191,111.122993 43.663498,109.409729 
z"/>
<path fill="#FFFFFF" opacity="1.000000" stroke="none" 
	d="
M138.253082,76.782593 
	C153.009109,93.461761 138.184708,110.057533 124.504410,113.709648 
	C124.504410,98.707909 124.504410,83.685104 124.504410,68.662300 
	C124.948006,68.358910 125.391602,68.055519 125.835197,67.752129 
	C129.890533,70.674194 133.945862,73.596252 138.253082,76.782593 
z"/>
</svg>